# xmcd CD database file
#
# Track frame offsets:
#	150
#	38400
#	81023
#	113044
#	144360
#	178953
#	187480
#	196264
#	255906
#
# Disc length: 3788 seconds
#
# Revision: 0
# Processed by: cddbd v1.5.1PL2 Copyright (c) Steve Scherf et al.
# Submitted via: CDex 1.51
#
DISCID=740eca09
DTITLE=Ron Allen - Fountain Of Youth
DYEAR=2001
DGENRE=New Age
TTITLE0=Replenish The Earth
TTITLE1=Magical Mist
TTITLE2=A World Of Wonder
TTITLE3=Blissful Realm
TTITLE4=Fountain Of Youth
TTITLE5=Euphoria
TTITLE6=Curious Beauty
TTITLE7=Paradice
TTITLE8=Bonus Track No Name
EXTD=YEAR: 2001
EXTT0=
EXTT1=
EXTT2=
EXTT3=
EXTT4=
EXTT5=
EXTT6=
EXTT7=
EXTT8=
PLAYORDER=
